<?xml version="1.0" encoding="UTF-8"?><svg id="a" xmlns="http://www.w3.org/2000/svg" viewBox="0 0 276 370.69"><defs><style>.b,.c{stroke-width:30px;}.b,.c,.d{stroke:#c4c4c4;stroke-miterlimit:10;}.b,.d{fill:none;}.c{fill:#c4c4c4;}.d{stroke-linecap:round;stroke-width:20px;}</style></defs><path class="b" d="M86.57,240.22V26.12c0-6.14,4.98-11.12,11.12-11.12h70.62c6.14,0,11.12,4.98,11.12,11.12V240.22"/><path class="b" d="M174.21,227.71c5.96,3.92,20.78,14.85,27.43,34.74,.22,.65,3.23,10.81,3.23,21.37,0,39.69-32.18,71.87-71.87,71.87s-71.87-32.18-71.87-71.87c0-10.57,3.01-20.7,3.23-21.37,6.68-19.93,21.6-30.84,27.55-34.74"/><circle class="c" cx="133" cy="286.99" r="18.37"/><line class="d" x1="133" y1="268.62" x2="133" y2="86.44"/><line class="d" x1="257.77" y1="86.44" x2="210.76" y2="86.44"/><line class="d" x1="234.26" y1="136.43" x2="210.76" y2="136.43"/><line class="d" x1="266" y1="186.41" x2="210.76" y2="186.41"/></svg>