<?xml version="1.0" encoding="UTF-8"?><svg id="a" xmlns="http://www.w3.org/2000/svg" viewBox="0 0 370.09 348.55"><defs><style>.b,.c{fill:none;}.c{stroke:#c4c4c4;stroke-miterlimit:10;stroke-width:30px;}.d{fill:#c4c4c4;font-family:IBMPlexMono, IBM Plex Mono;font-size:160px;}</style></defs><path class="c" d="M339.28,93.13c9.88,12.11,15.81,27.57,15.81,44.41,0,32.4-21.92,59.68-51.75,67.82"/><path class="c" d="M241.14,74.14c10.15-17.19,20.3-34.38,30.45-51.58,5.95-10.07,20.51-10.08,26.47-.02,14.59,24.63,29.17,49.26,43.76,73.89"/><path class="c" d="M236.81,81.47l4.33-7.33"/><path class="b" d="M124.76,96.58c9.88,12.11,15.81,27.57,15.81,44.41,0,38.82-31.47,70.29-70.29,70.29S0,179.82,0,141c0-16.85,5.93-32.31,15.81-44.41"/><path class="b" d="M14.17,98.67c14.3-24.22,28.6-48.44,42.89-72.66,5.95-10.07,20.51-10.08,26.47-.02,14.59,24.63,29.17,49.26,43.76,73.89"/><path class="c" d="M274.16,146.12c16.15,19.78,25.83,45.05,25.83,72.58,0,63.43-51.42,114.85-114.85,114.85s-114.85-51.42-114.85-114.85c0-27.53,9.68-52.79,25.83-72.58"/><path class="c" d="M93.44,149.54c23.36-39.58,46.73-79.15,70.09-118.73,9.72-16.46,33.52-16.48,43.26-.03,23.84,40.25,47.67,80.5,71.51,120.74"/><text class="d" transform="translate(140.57 261.97)"><tspan x="0" y="0">%</tspan></text></svg>
